<svg width="896" height="390" fill="none" xmlns="http://www.w3.org/2000/svg">
  <path fill-rule="evenodd" clip-rule="evenodd" d="M741.941.507324c84.5 0 153 68.276576 153 152.499676 0 84.224-68.5 152.5-153 152.5V.507324Z" fill="#121212"/>
  <path d="M741.941 305.507c-83.487-.54-152-68.609-152-152.5 0-83.8901 67.513-151.95981 151-152.499676h1V305.507Z" fill="#fff"/>
  <path d="M741.941 305.507c-.667-.004-1.334-.013-2-.026-82.578-1.603-150-69.254-150-152.474 0-83.555 66.975-151.41581 150-152.489978.333-.004308.666-.007542 1-.009698h1V2.50732l-2.515.0175C657.75 3.87209 591.941 70.7234 591.941 153.007c0 82.104 66.516 148.871 148 150.474l2 .026v2Z" fill="#121212"/>
  <path d="M741.941 152.964v-3.38l-47.735 47.735c.553.574 1.115 1.138 1.688 1.692l46.047-46.047ZM704.143 205.801c-.662-.462-1.316-.935-1.96-1.42l39.758-39.758v3.38l-37.798 37.798ZM713.653 211.33c-.76-.361-1.511-.737-2.254-1.126l30.542-30.542v3.38l-28.288 28.288ZM724.611 215.411c-.876-.241-1.744-.499-2.605-.775l19.935-19.935v3.38l-17.33 17.33ZM737.439 217.622c-1.034-.076-2.061-.175-3.082-.298l7.584-7.584v3.38l-4.502 4.502ZM688.851 191.014l53.09-53.089v-3.38l-54.503 54.503c.459.665.93 1.32 1.413 1.966ZM683.067 181.759l58.874-58.873v-3.38l-59.985 59.985c.356.764.727 1.52 1.111 2.268ZM678.726 171.062l63.215-63.215v-3.38l-63.957 63.957c.229.887.476 1.766.742 2.638ZM676.238 158.511l65.703-65.7035V89.428l-65.928 65.928c.049 1.058.125 2.11.225 3.155ZM676.583 143.126l55.619-55.6187c-1.387.2036-2.76.45-4.117.7378l-50.79 50.7899c-.279 1.349-.517 2.713-.712 4.091ZM684.301 120.37l25.029-25.0294c-4.701 2.6566-9.041 5.8694-12.929 9.5494l-2.578 2.578c-3.677 3.885-6.881 8.216-9.522 12.902Z" fill="#121212"/>
  <path d="M316.559 304.507 467.441 2.74339 618.323 304.507H316.559Z" fill="#fff" stroke="#121212" stroke-width="2"/>
  <path d="m390.941 153.507-76 152h305l-76-152h-153Z" fill="#121212"/>
  <path d="m541.704 153.507-74.263 152-74.263-152h148.526Z" fill="#fff"/>
  <path d="M402.564 304.096h3.38l-13.003-13.003v3.379l9.623 9.624ZM392.941 279.433l24.662 24.663h3.38l-28.042-28.042v3.379ZM392.941 261.015v3.379l39.701 39.702h3.38l-43.081-43.081ZM392.941 245.976v3.379l54.74 54.741h3.38l-58.12-58.12ZM392.941 230.937v3.379l69.779 69.78h3.38l-73.159-73.159ZM392.941 215.898v3.379l84.818 84.819h3.38l-88.198-88.198ZM392.941 200.859v3.379l99.857 99.858h3.38L392.941 200.859ZM392.941 185.82v3.379l114.897 114.897h3.379L392.941 185.82ZM392.941 170.781v3.379l129.936 129.936h3.379L392.941 170.781ZM392.941 155.742v3.379l144.975 144.975h3.379L392.941 155.742ZM405.746 153.507h-3.38L543.529 294.67v-3.379L405.746 153.507ZM420.785 153.507h-3.38l126.124 126.124v-3.379L420.785 153.507ZM435.824 153.507h-3.38l111.085 111.085v-3.379L435.824 153.507ZM450.863 153.507h-3.38l96.046 96.046v-3.379l-92.666-92.667ZM465.902 153.507h-3.38l81.007 81.007v-3.379l-77.627-77.628ZM480.941 153.507h-3.38l65.968 65.968v-3.379l-62.588-62.589ZM495.98 153.507h-3.38l50.929 50.929v-3.379l-47.549-47.55ZM511.019 153.507h-3.38l35.89 35.89v-3.379l-32.51-32.511ZM526.058 153.507h-3.38l20.851 20.851v-3.379l-17.471-17.472ZM541.097 153.507h-3.38l5.812 5.812v-3.379l-2.432-2.433Z" fill="#121212"/>
  <path fill="#fff" d="M1.94116 1.50732h303v303h-303z"/>
  <path stroke="#121212" stroke-width="2" d="M1.94116 1.50732h303v303h-303z"/>
  <path fill="#fff" d="M153.941 152.507h150v151h-150z"/>
  <path d="M296.228 305.507h-3.412l13.125-13.211v3.434l-9.713 9.777ZM305.941 280.45l-24.893 25.057h-3.412l28.305-28.491v3.434ZM305.941 261.736v3.434l-40.073 40.337h-3.412l43.485-43.771ZM305.941 246.457v3.433l-55.253 55.617h-3.412l58.665-59.05ZM305.941 231.177v3.433l-70.433 70.897h-3.412l73.845-74.33ZM305.941 215.897v3.434l-85.613 86.176h-3.412l89.025-89.61ZM305.941 200.617v3.434L205.148 305.507h-3.412l104.205-104.89ZM305.941 185.337v3.434L189.968 305.507h-3.412l119.385-120.17ZM305.941 170.057v3.434L174.788 305.507h-3.412l134.565-135.45ZM305.941 154.777v3.434L159.608 305.507h-3.412l149.745-150.73ZM293.016 152.507h3.412L153.941 295.931v-3.434l139.075-139.99ZM277.836 152.507h3.412L153.941 280.651v-3.433l123.895-124.711ZM262.656 152.507h3.412L153.941 265.371v-3.433l108.715-109.431ZM247.476 152.507h3.412l-96.947 97.584v-3.433l93.535-94.151ZM232.296 152.507h3.412l-81.767 82.305v-3.434l78.355-78.871ZM217.116 152.507h3.412l-66.587 67.025v-3.434l63.175-63.591ZM201.936 152.507h3.412l-51.407 51.745v-3.434l47.995-48.311ZM186.756 152.507h3.411l-36.226 36.465v-3.434l32.815-33.031ZM171.576 152.507h3.411l-21.046 21.185v-3.434l17.635-17.751ZM156.396 152.507h3.411l-5.866 5.905v-3.433l2.455-2.472Z" fill="#121212"/>
  <path fill="#121212" d="M.941162.507324h305v153h-305z"/>
  <path fill-rule="evenodd" clip-rule="evenodd" d="M27.4273 338.251v5.266H7.73076c-.80669 0-1.27725-.072-1.6806-.216l-.13444.072c.13444.433.20167 1.01.20167 1.803v12.697c0 .793-.06723 1.443-.20167 1.803l.13444.145c.40335-.217.87391-.289 1.6806-.289H25.7467v5.266H7.73076c-.80669 0-1.27725 0-1.6806-.216l-.13444.144c.13444.361.20167.938.20167 1.732v22.291H.941162v-50.498H27.4273Zm36.3256-1.082c14.2514 0 24.5366 11.037 24.5366 26.331 0 15.293-10.2852 26.331-24.5366 26.331-14.2515 0-24.5367-11.038-24.5367-26.331 0-15.294 10.2852-26.331 24.5367-26.331Zm0 5.627c-11.0247 0-18.8899 8.657-18.8899 20.704s7.8652 20.704 18.8899 20.704c11.0919 0 18.957-8.657 18.957-20.704s-7.8651-20.704-18.957-20.704Zm75.3151-4.545v31.814c0 12.191-6.991 19.694-18.083 19.694-11.025 0-18.083-7.503-18.083-19.694v-31.814h5.378v31.453c0 9.089 4.907 14.428 12.705 14.428s12.705-5.339 12.705-14.428v-31.453h5.378Zm17.839-.721 28.705 34.41c1.546 1.876 3.092 4.112 3.697 5.699l.202-.072c-.404-2.236-.538-4.905-.538-9.09v-30.226h5.176v51.219h-.605l-28.637-34.41c-1.546-1.876-3.092-4.112-3.697-5.699l-.269.072c.403 2.236.605 4.905.605 9.017v30.299h-5.177V337.53h.538Zm69.534.721c14.521 0 23.999 10.027 23.999 25.249 0 15.221-9.478 25.249-23.999 25.249h-14.453v-50.498h14.453Zm-9.344 5.05-.134.072c.134.433.201 1.01.201 1.803v36.647c0 .794-.067 1.371-.201 1.804l.134.072c.404-.144.74-.217 1.681-.217h7.731c11.293 0 18.284-7.646 18.284-19.982 0-12.336-7.058-19.983-18.284-19.983h-7.731c-.941 0-1.277-.072-1.681-.216Zm74.71-5.05v5.266H272.38c-.807 0-1.277-.072-1.681-.216l-.134.072c.134.433.201 1.01.201 1.803v11.615c0 .721-.067 1.371-.201 1.731l.134.144c.404-.216.874-.216 1.681-.216h17.276v5.194H272.38c-.807 0-1.277 0-1.681-.216l-.134.144c.134.361.201 1.01.201 1.803v16.448c0 .794-.067 1.371-.201 1.804l.134.072c.404-.144.874-.217 1.681-.217h19.696v5.267H265.59v-50.498h26.217Zm30.679 0c8.47 0 13.781 5.122 13.781 13.49 0 8.008-5.848 13.057-12.167 13.057-.807 0-1.614-.144-2.353-.36v.288c1.412.577 2.487 1.659 3.764 3.319l15.126 20.704h-6.723l-17.142-23.662h-2.689c-.941 0-1.344 0-1.68-.217l-.135.145c.135.433.202 1.01.202 1.803v21.931h-5.176v-50.498h15.192Zm-10.083 5.05-.135.072c.135.433.202 1.01.202 1.803v12.913c0 .794-.067 1.443-.202 1.804l.135.144c.403-.216.806-.288 1.68-.288h8.47c5.177 0 8.202-2.958 8.202-8.08 0-4.906-2.891-8.152-8.202-8.152h-8.47c-.941 0-1.277-.072-1.68-.216Zm53.467-6.132c4.303 0 8.336 1.298 11.966 3.174l-2.42 5.338c-3.227-1.875-6.453-2.885-9.613-2.885-4.638 0-7.058 2.164-7.058 5.771 0 2.886 1.344 4.978 4.974 7.791l7.731 6.132c5.512 4.328 7.932 8.152 7.932 13.779 0 8.656-5.781 13.562-14.587 13.562-5.58 0-10.958-1.948-14.857-4.617l2.488-5.194c3.495 2.308 7.865 4.184 12.369 4.184 5.848 0 9.075-3.102 9.075-7.575 0-3.39-1.748-5.987-6.05-9.378l-7.664-6.276c-4.705-3.751-6.991-7.214-6.991-12.192 0-7.214 4.706-11.614 12.705-11.614Zm52.014 51.58 21.646-51.58h.538l21.646 51.58h-5.782l-6.05-14.933h-20.1l-6.117 14.933h-5.781Zm13.31-19.55c.605-.072 1.748-.144 3.765-.144h9.68c2.084 0 3.159.072 3.764.144l.068-.072c-.538-.794-1.143-1.876-2.084-4.184l-4.706-11.976c-1.008-2.669-1.613-4.689-1.748-5.987h-.269c-.134 1.298-.672 3.318-1.748 5.987l-4.705 11.976c-.874 2.308-1.479 3.39-2.017 4.184v.072Zm44.46-31.669 28.704 34.41c1.546 1.876 3.093 4.112 3.698 5.699l.201-.072c-.403-2.236-.538-4.905-.538-9.09v-30.226h5.177v51.219h-.605l-28.638-34.41c-1.546-1.876-3.092-4.112-3.697-5.699l-.269.072c.403 2.236.605 4.905.605 9.017v30.299h-5.176V337.53h.538Zm69.534.721c14.52 0 23.999 10.027 23.999 25.249 0 15.221-9.479 25.249-23.999 25.249h-14.453v-50.498h14.453Zm-9.344 5.05-.135.072c.135.433.202 1.01.202 1.803v36.647c0 .794-.067 1.371-.202 1.804l.135.072c.403-.144.739-.217 1.68-.217h7.731c11.294 0 18.285-7.646 18.285-19.982 0-12.336-7.059-19.983-18.285-19.983h-7.731c-.941 0-1.277-.072-1.68-.216Zm99.07 46.53c-14.991 0-25.142-10.677-25.142-26.331s10.151-26.331 25.142-26.331c6.252 0 11.495 1.803 16.402 5.699l-3.159 4.833c-4.168-3.318-8.538-4.905-13.445-4.905-11.428 0-19.293 8.512-19.293 20.704 0 12.191 7.865 20.704 19.293 20.704 4.907 0 9.277-1.587 13.445-4.906l3.159 4.834c-4.907 3.895-10.15 5.699-16.402 5.699Zm53.064-52.662c14.251 0 24.537 11.037 24.537 26.331 0 15.293-10.286 26.331-24.537 26.331s-24.537-11.038-24.537-26.331c0-15.294 10.286-26.331 24.537-26.331Zm0 5.627c-11.025 0-18.89 8.657-18.89 20.704s7.865 20.704 18.89 20.704c11.092 0 18.957-8.657 18.957-20.704s-7.865-20.704-18.957-20.704Zm54.14-4.545c14.52 0 23.999 10.027 23.999 25.249 0 15.221-9.479 25.249-23.999 25.249h-14.453v-50.498h14.453Zm-9.344 5.05-.135.072c.135.433.202 1.01.202 1.803v36.647c0 .794-.067 1.371-.202 1.804l.135.072c.403-.144.739-.217 1.68-.217h7.731c11.294 0 18.285-7.646 18.285-19.982 0-12.336-7.059-19.983-18.285-19.983h-7.731c-.941 0-1.277-.072-1.68-.216Zm74.71-5.05v5.266h-19.428c-.806 0-1.277-.072-1.68-.216l-.135.072c.135.433.202 1.01.202 1.803v11.615c0 .721-.067 1.371-.202 1.731l.135.144c.403-.216.874-.216 1.68-.216h17.277v5.194h-17.277c-.806 0-1.277 0-1.68-.216l-.135.144c.135.361.202 1.01.202 1.803v16.448c0 .794-.067 1.371-.202 1.804l.135.072c.403-.144.874-.217 1.68-.217h19.697v5.267h-26.486v-50.498h26.217Zm30.679 0c8.47 0 13.781 5.122 13.781 13.49 0 8.008-5.849 13.057-12.168 13.057-.807 0-1.613-.144-2.353-.36v.288c1.412.577 2.488 1.659 3.765 3.319l15.125 20.704h-6.722l-17.142-23.662h-2.689c-.941 0-1.345 0-1.681-.217l-.134.145c.134.433.201 1.01.201 1.803v21.931h-5.176v-50.498h15.193Zm-10.084 5.05-.134.072c.134.433.201 1.01.201 1.803v12.913c0 .794-.067 1.443-.201 1.804l.134.144c.404-.216.807-.288 1.681-.288h8.47c5.176 0 8.201-2.958 8.201-8.08 0-4.906-2.89-8.152-8.201-8.152h-8.47c-.941 0-1.277-.072-1.681-.216Zm53.468-6.132c4.302 0 8.336 1.298 11.966 3.174l-2.42 5.338c-3.227-1.875-6.454-2.885-9.613-2.885-4.639 0-7.059 2.164-7.059 5.771 0 2.886 1.345 4.978 4.975 7.791l7.73 6.132c5.513 4.328 7.933 8.152 7.933 13.779 0 8.656-5.781 13.562-14.588 13.562-5.579 0-10.957-1.948-14.856-4.617l2.487-5.194c3.496 2.308 7.865 4.184 12.369 4.184 5.849 0 9.075-3.102 9.075-7.575 0-3.39-1.747-5.987-6.05-9.378l-7.663-6.276c-4.706-3.751-6.991-7.214-6.991-12.192 0-7.214 4.705-11.614 12.705-11.614Z" fill="#121212"/>
</svg>
