<svg xmlns="http://www.w3.org/2000/svg" viewBox="0 0 1500 500" role="img" aria-labelledby="title desc">
  <title id="title">Epochs are repeated passes</title>
  <desc id="desc">Across three passes the boundary rotates and shifts until every point is correct.</desc>
  <defs>
    <marker id="tip" markerWidth="9" markerHeight="9" refX="7" refY="4.5" orient="auto">
      <path d="M0,0 L9,4.5 L0,9 Z" fill="#59636e"/>
    </marker>
    <marker id="tip-big" markerWidth="8" markerHeight="8" refX="6.5" refY="4" orient="auto">
      <path d="M0,0 L8,4 L0,8 Z" fill="#8a9099"/>
    </marker>
  </defs>
  <style>
    .bg { fill: #ffffff; }
    .panel { fill: #f6f8fa; stroke: #d1d9e0; stroke-width: 2; }
    .grid { stroke: #d1d9e0; stroke-width: 1.2; opacity: 0.7; }
    .axis { stroke: #59636e; stroke-width: 2.6; stroke-linecap: round; }
    .blue { fill: #dbeafe; stroke: #2563eb; stroke-width: 4; }
    .red { fill: #ffebe9; stroke: #cf222e; stroke-width: 4; }
    .region-blue { fill: #2563eb; opacity: 0.07; }
    .region-red { fill: #cf222e; opacity: 0.07; }
    .boundary { stroke: #079c91; stroke-width: 8; fill: none; stroke-linecap: round; stroke-linejoin: round; }
    .boundary-ghost { stroke: #079c91; stroke-width: 6; fill: none; stroke-linecap: round; opacity: 0.3; stroke-dasharray: 16 12; }
    .node { fill: #e6f7f5; stroke: #079c91; stroke-width: 4; }
    .node-sum { fill: #eaf1fe; stroke: #2563eb; stroke-width: 4; }
    .node-out { fill: #ffffff; stroke: #59636e; stroke-width: 4; }
    .edge { stroke: #59636e; fill: none; stroke-linecap: round; }
    .flow { stroke: #59636e; fill: none; stroke-width: 5; stroke-linecap: round; marker-end: url(#tip); }
    .drop { stroke: #59636e; stroke-width: 3; stroke-linecap: round; stroke-dasharray: 8 8; opacity: 0.85; }
    .ring { stroke: #cf222e; stroke-width: 4; fill: none; }
    .arc { fill: none; stroke: #59636e; stroke-width: 4; stroke-linecap: round; opacity: 0.85; marker-end: url(#tip); }
    .bigarrow { fill: none; stroke: #8a9099; stroke-width: 6; stroke-linecap: round; marker-end: url(#tip-big); }
    .step { stroke: #079c91; stroke-width: 7; fill: none; stroke-linecap: round; stroke-linejoin: round; }
    .thresh { stroke: #079c91; stroke-width: 3; stroke-dasharray: 8 8; opacity: 0.55; }
    .tick { stroke: #1a7f37; stroke-width: 9; fill: none; stroke-linecap: round; stroke-linejoin: round; }
    .cross { stroke: #cf222e; stroke-width: 9; fill: none; stroke-linecap: round; }
    .curvy { fill: none; stroke: #59636e; stroke-width: 4; stroke-linecap: round; opacity: 0.9; marker-end: url(#tip); }
    .sigma { font-family: 'Inter', Arial, sans-serif; font-size: 46px; font-weight: 700; fill: #2563eb; text-anchor: middle; dominant-baseline: central; }
    .qmark { font-family: 'Inter', Arial, sans-serif; font-size: 70px; font-weight: 700; fill: #59636e; text-anchor: middle; dominant-baseline: central; opacity: 0.7; }
  </style>
  <rect class="bg" width="1500" height="500"/>
  <rect class="panel" x="70" y="90" width="400" height="320" rx="10"/>
  <line class="grid" x1="201.0" y1="368.0" x2="201.0" y2="116.0"/>
  <line class="grid" x1="282.0" y1="368.0" x2="282.0" y2="116.0"/>
  <line class="grid" x1="363.0" y1="368.0" x2="363.0" y2="116.0"/>
  <line class="grid" x1="120.0" y1="296.0" x2="444.0" y2="296.0"/>
  <line class="grid" x1="120.0" y1="224.0" x2="444.0" y2="224.0"/>
  <line class="grid" x1="120.0" y1="152.0" x2="444.0" y2="152.0"/>
  <line class="axis" x1="120.0" y1="368.0" x2="444.0" y2="368.0"/>
  <line class="axis" x1="120.0" y1="368.0" x2="120.0" y2="116.0"/>
  <circle class="blue" cx="176.7" cy="310.4" r="9"/>
  <circle class="blue" cx="233.4" cy="328.4" r="9"/>
  <circle class="blue" cx="290.1" cy="299.6" r="9"/>
  <circle class="blue" cx="346.8" cy="321.2" r="9"/>
  <circle class="blue" cx="257.7" cy="281.6" r="9"/>
  <circle class="red" cx="217.2" cy="188.0" r="9"/>
  <circle class="red" cx="277.9" cy="166.4" r="9"/>
  <circle class="red" cx="330.6" cy="195.2" r="9"/>
  <circle class="red" cx="379.2" cy="177.2" r="9"/>
  <circle class="red" cx="306.3" cy="224.0" r="9"/>
  <line class="boundary" x1="128.0" y1="322.5" x2="436.0" y2="296.6"/>
  <circle class="ring" cx="176.7" cy="310.4" r="18"/>
  <circle class="ring" cx="257.7" cy="281.6" r="18"/>
  <circle class="ring" cx="290.1" cy="299.6" r="18"/>
  <line class="bigarrow" x1="485" y1="250" x2="535" y2="250"/>
  <rect class="panel" x="550" y="90" width="400" height="320" rx="10"/>
  <line class="grid" x1="681.0" y1="368.0" x2="681.0" y2="116.0"/>
  <line class="grid" x1="762.0" y1="368.0" x2="762.0" y2="116.0"/>
  <line class="grid" x1="843.0" y1="368.0" x2="843.0" y2="116.0"/>
  <line class="grid" x1="600.0" y1="296.0" x2="924.0" y2="296.0"/>
  <line class="grid" x1="600.0" y1="224.0" x2="924.0" y2="224.0"/>
  <line class="grid" x1="600.0" y1="152.0" x2="924.0" y2="152.0"/>
  <line class="axis" x1="600.0" y1="368.0" x2="924.0" y2="368.0"/>
  <line class="axis" x1="600.0" y1="368.0" x2="600.0" y2="116.0"/>
  <circle class="blue" cx="656.7" cy="310.4" r="9"/>
  <circle class="blue" cx="713.4" cy="328.4" r="9"/>
  <circle class="blue" cx="770.1" cy="299.6" r="9"/>
  <circle class="blue" cx="826.8" cy="321.2" r="9"/>
  <circle class="blue" cx="737.7" cy="281.6" r="9"/>
  <circle class="red" cx="697.2" cy="188.0" r="9"/>
  <circle class="red" cx="758.0" cy="166.4" r="9"/>
  <circle class="red" cx="810.6" cy="195.2" r="9"/>
  <circle class="red" cx="859.2" cy="177.2" r="9"/>
  <circle class="red" cx="786.3" cy="224.0" r="9"/>
  <line class="boundary-ghost" x1="608.0" y1="322.5" x2="916.0" y2="296.6"/>
  <line class="boundary" x1="608.0" y1="288.0" x2="916.0" y2="277.5"/>
  <circle class="ring" cx="737.7" cy="281.6" r="18"/>
  <line class="bigarrow" x1="965" y1="250" x2="1015" y2="250"/>
  <rect class="panel" x="1030" y="90" width="400" height="320" rx="10"/>
  <line class="grid" x1="1161.0" y1="368.0" x2="1161.0" y2="116.0"/>
  <line class="grid" x1="1242.0" y1="368.0" x2="1242.0" y2="116.0"/>
  <line class="grid" x1="1323.0" y1="368.0" x2="1323.0" y2="116.0"/>
  <line class="grid" x1="1080.0" y1="296.0" x2="1404.0" y2="296.0"/>
  <line class="grid" x1="1080.0" y1="224.0" x2="1404.0" y2="224.0"/>
  <line class="grid" x1="1080.0" y1="152.0" x2="1404.0" y2="152.0"/>
  <line class="axis" x1="1080.0" y1="368.0" x2="1404.0" y2="368.0"/>
  <line class="axis" x1="1080.0" y1="368.0" x2="1080.0" y2="116.0"/>
  <circle class="blue" cx="1136.7" cy="310.4" r="9"/>
  <circle class="blue" cx="1193.4" cy="328.4" r="9"/>
  <circle class="blue" cx="1250.1" cy="299.6" r="9"/>
  <circle class="blue" cx="1306.8" cy="321.2" r="9"/>
  <circle class="blue" cx="1217.7" cy="281.6" r="9"/>
  <circle class="red" cx="1177.2" cy="188.0" r="9"/>
  <circle class="red" cx="1238.0" cy="166.4" r="9"/>
  <circle class="red" cx="1290.6" cy="195.2" r="9"/>
  <circle class="red" cx="1339.2" cy="177.2" r="9"/>
  <circle class="red" cx="1266.3" cy="224.0" r="9"/>
  <line class="boundary-ghost" x1="1088.0" y1="288.0" x2="1396.0" y2="277.5"/>
  <line class="boundary" x1="1088.0" y1="250.0" x2="1396.0" y2="259.0"/>
</svg>
