<svg xmlns="http://www.w3.org/2000/svg" viewBox="0 0 1500 500" role="img" aria-labelledby="title desc">
  <title id="title">Epochs are repeated passes</title>
  <desc id="desc">The separating line improves over three repeated passes through the same data.</desc>
  <style>
    .bg { fill: #ffffff; }
    .panel { fill: #f6f8fa; stroke: #d1d9e0; stroke-width: 2; }
    .grid { stroke: #d1d9e0; stroke-width: 1.2; opacity: 0.72; }
    .axis { stroke: #59636e; stroke-width: 3; stroke-linecap: round; }
    .green { fill: #dbeafe; stroke: #2563eb; stroke-width: 4; }
    .red { fill: #ffebe9; stroke: #cf222e; stroke-width: 4; }
    .line1 { stroke: #cf222e; stroke-width: 6; stroke-linecap: round; opacity: 0.5; }
    .line2 { stroke: #59636e; stroke-width: 6; stroke-linecap: round; opacity: 0.7; }
    .line3 { stroke: #9a6700; stroke-width: 8; stroke-linecap: round; }
  </style>
  <rect class="bg" width="1500" height="500"/>
  <g transform="translate(125 95) scale(.92)">
    <rect class="panel" x="0" y="0" width="350" height="290" rx="10"/>
    <line class="grid" x1="78" y1="34" x2="78" y2="238"/><line class="grid" x1="144" y1="34" x2="144" y2="238"/><line class="grid" x1="210" y1="34" x2="210" y2="238"/><line class="grid" x1="276" y1="34" x2="276" y2="238"/>
    <line class="grid" x1="42" y1="74" x2="308" y2="74"/><line class="grid" x1="42" y1="124" x2="308" y2="124"/><line class="grid" x1="42" y1="174" x2="308" y2="174"/><line class="grid" x1="42" y1="224" x2="308" y2="224"/>
    <line class="axis" x1="42" y1="238" x2="314" y2="238"/><line class="axis" x1="42" y1="238" x2="42" y2="28"/>
    <circle class="green" cx="84" cy="196" r="11"/><circle class="green" cx="126" cy="156" r="11"/><circle class="green" cx="168" cy="210" r="11"/><circle class="green" cx="210" cy="180" r="11"/><circle class="green" cx="288" cy="206" r="11"/>
    <circle class="red" cx="150" cy="86" r="11"/><circle class="red" cx="200" cy="108" r="11"/><circle class="red" cx="242" cy="70" r="11"/><circle class="red" cx="276" cy="130" r="11"/><circle class="red" cx="316" cy="102" r="11"/>
    <line class="line1" x1="62" y1="154" x2="318" y2="226"/>
  </g>
  <g transform="translate(575 95) scale(.92)">
    <rect class="panel" x="0" y="0" width="350" height="290" rx="10"/>
    <line class="grid" x1="78" y1="34" x2="78" y2="238"/><line class="grid" x1="144" y1="34" x2="144" y2="238"/><line class="grid" x1="210" y1="34" x2="210" y2="238"/><line class="grid" x1="276" y1="34" x2="276" y2="238"/>
    <line class="grid" x1="42" y1="74" x2="308" y2="74"/><line class="grid" x1="42" y1="124" x2="308" y2="124"/><line class="grid" x1="42" y1="174" x2="308" y2="174"/><line class="grid" x1="42" y1="224" x2="308" y2="224"/>
    <line class="axis" x1="42" y1="238" x2="314" y2="238"/><line class="axis" x1="42" y1="238" x2="42" y2="28"/>
    <circle class="green" cx="84" cy="196" r="11"/><circle class="green" cx="126" cy="156" r="11"/><circle class="green" cx="168" cy="210" r="11"/><circle class="green" cx="210" cy="180" r="11"/><circle class="green" cx="288" cy="206" r="11"/>
    <circle class="red" cx="150" cy="86" r="11"/><circle class="red" cx="200" cy="108" r="11"/><circle class="red" cx="242" cy="70" r="11"/><circle class="red" cx="276" cy="130" r="11"/><circle class="red" cx="316" cy="102" r="11"/>
    <line class="line2" x1="62" y1="126" x2="318" y2="202"/>
  </g>
  <g transform="translate(1025 95) scale(.92)">
    <rect class="panel" x="0" y="0" width="350" height="290" rx="10"/>
    <line class="grid" x1="78" y1="34" x2="78" y2="238"/><line class="grid" x1="144" y1="34" x2="144" y2="238"/><line class="grid" x1="210" y1="34" x2="210" y2="238"/><line class="grid" x1="276" y1="34" x2="276" y2="238"/>
    <line class="grid" x1="42" y1="74" x2="308" y2="74"/><line class="grid" x1="42" y1="124" x2="308" y2="124"/><line class="grid" x1="42" y1="174" x2="308" y2="174"/><line class="grid" x1="42" y1="224" x2="308" y2="224"/>
    <line class="axis" x1="42" y1="238" x2="314" y2="238"/><line class="axis" x1="42" y1="238" x2="42" y2="28"/>
    <circle class="green" cx="84" cy="196" r="11"/><circle class="green" cx="126" cy="156" r="11"/><circle class="green" cx="168" cy="210" r="11"/><circle class="green" cx="210" cy="180" r="11"/><circle class="green" cx="288" cy="206" r="11"/>
    <circle class="red" cx="150" cy="86" r="11"/><circle class="red" cx="200" cy="108" r="11"/><circle class="red" cx="242" cy="70" r="11"/><circle class="red" cx="276" cy="130" r="11"/><circle class="red" cx="316" cy="102" r="11"/>
    <line class="line3" x1="62" y1="106" x2="318" y2="186"/>
  </g>
</svg>
